<svg xmlns="http://www.w3.org/2000/svg" width="373.16" height="110.288" viewBox="0 0 373.16 110.288">
  <g id="Group_91" data-name="Group 91" transform="translate(4764.001 6814)">
    <g id="Group_12" data-name="Group 12" transform="translate(-4826.771 -7414)">
      <g id="Group_1" data-name="Group 1" transform="translate(62.77 600)">
        <rect id="Rectangle_4" data-name="Rectangle 4" width="31.194" height="31.194" transform="translate(44.115 22.058) rotate(45)" fill="#b29969" opacity="0.6"/>
        <path id="Rectangle_11" data-name="Rectangle 11" d="M0,0H31.194V31.194H4a4,4,0,0,1-4-4Z" transform="translate(22.058 44.115) rotate(45)" fill="#b29969" opacity="0.8"/>
        <rect id="Rectangle_7" data-name="Rectangle 7" width="31.194" height="31.194" transform="translate(88.23 22.058) rotate(45)" fill="#b29969" opacity="0.6"/>
        <rect id="Rectangle_9" data-name="Rectangle 9" width="31.194" height="31.194" transform="translate(66.172 44.115) rotate(45)" fill="#b29969" opacity="0.8"/>
        <path id="Rectangle_13" data-name="Rectangle 13" d="M0,0H31.194V27.194a4,4,0,0,1-4,4H0Z" transform="translate(88.23 66.173) rotate(45)" fill="#b29969"/>
        <path id="Rectangle_14" data-name="Rectangle 14" d="M0,0H31.194V27.194a4,4,0,0,1-4,4H0Z" transform="translate(44.115 66.173) rotate(45)" fill="#b29969"/>
        <path id="Rectangle_15" data-name="Rectangle 15" d="M0,0H31.194V27.194a4,4,0,0,1-4,4H0Z" transform="translate(132.345 66.173) rotate(45)" fill="#b29969"/>
        <rect id="Rectangle_10" data-name="Rectangle 10" width="31.194" height="31.194" transform="translate(110.287 44.115) rotate(45)" fill="#b29969" opacity="0.8"/>
        <path id="Rectangle_12" data-name="Rectangle 12" d="M0,0H27.194a4,4,0,0,1,4,4V31.194H0Z" transform="translate(154.402 44.115) rotate(45)" fill="#b29969" opacity="0.8"/>
        <rect id="Rectangle_8" data-name="Rectangle 8" width="31.194" height="31.194" transform="translate(132.345 22.058) rotate(45)" fill="#b29969" opacity="0.6"/>
        <path id="Rectangle_5" data-name="Rectangle 5" d="M3,0H31.194V31.194H0V3A3,3,0,0,1,3,0Z" transform="translate(66.172) rotate(45)" fill="#b29969" opacity="0.4"/>
        <path id="Rectangle_6" data-name="Rectangle 6" d="M3,0H31.194V31.194H0V3A3,3,0,0,1,3,0Z" transform="translate(110.287) rotate(45)" fill="#b29969" opacity="0.4"/>
      </g>
      <path id="Path_1" data-name="Path 1" d="M24.32-61.6l6.4-11.2h14.4L35.84-61.6Zm7.2,62.72C14.64,1.12,2.4-11.52,2.4-28S14.64-57.12,31.52-57.12a27.929,27.929,0,0,1,24,12.96l-11.04,6.4C42-42.08,37.2-44.64,31.52-44.64,21.6-44.64,15.2-38,15.2-28s6.4,16.64,16.32,16.64c5.68,0,10.56-2.56,12.96-6.88l11.04,6.4C50.72-3.92,41.76,1.12,31.52,1.12ZM90.56-40v3.76c-2.64-3.04-6.56-4.88-11.92-4.88-10.48,0-19.12,9.2-19.12,21.12S68.16,1.12,78.64,1.12c5.36,0,9.28-1.84,11.92-4.88V0h12V-40ZM81.04-10.24c-5.52,0-9.52-3.76-9.52-9.76s4-9.76,9.52-9.76S90.56-26,90.56-20,86.56-10.24,81.04-10.24ZM133.36-45.6V-57.12c-13.28-.8-19.44,5.92-19.44,17.12h-5.36v11.52h5.36V0h12V-28.48h7.44V-40h-7.44C125.92-44.64,128.88-46,133.36-45.6Zm13.92,30.4h28.4a23.255,23.255,0,0,0,.48-4.8c0-12.08-8.64-21.12-20.32-21.12-12.64,0-21.28,9.2-21.28,21.12s8.48,21.12,22.16,21.12c7.6,0,13.52-2.8,17.44-8.24l-9.6-5.52a10.445,10.445,0,0,1-7.68,3.04C152.48-9.6,148.8-11.04,147.28-15.2Zm-.24-8.96c1.12-4.08,4.16-6.32,8.72-6.32,3.6,0,7.2,1.68,8.48,6.32Z" transform="translate(259.771 692)" fill="#fff"/>
    </g>
  </g>
</svg>
